<svg xmlns="http://www.w3.org/2000/svg" viewBox="0 0 36.22 39.84"><defs><style>.cls-1{fill:#fff;fill-rule:evenodd;}</style></defs><g id="Layer_2" data-name="Layer 2"><g id="Layer_1-2" data-name="Layer 1"><path class="cls-1" d="M14.92,14h-.28l-.23.13.14.1h.23l.14-.1m-1.16.16-.28.37v.1l.55-.3-.18-.17Zm1.44.14v.19l.09.17.19,0,.32-.13.14-.26-.14-.1-.46.06-.19-.06v0Zm1.63.43,0,.06H17l0-.1,0-.1Zm-1.68.36.14.06.19-.13a.7.7,0,0,1-.28,0Zm.75,0-.24,0,.14.3.1-.07ZM10.14,31.75l.51,0H11l.06-.08-.51-.2Zm-.74.57-.22-.16H9.12l-.06.12.23.12Zm-1.86-.16-.45,0,.11.12.57.08v-.2Zm.68-.84.28.6v-.2l.28-.08A2,2,0,0,0,8.22,31.32Zm-3.16-.16L5,31.28v.24l.17.16.11-.2A.82.82,0,0,0,5.06,31.16Zm7.05-14.08.09.1.28-.07.14-.16-.19-.1-.23.07Zm.62-.54,0,.1.19.06.18,0L13,16.5Zm.36.93.1-.13-.1-.07-.14.1,0,.13Zm4.2-2.65H17.2l-.1,0,0,.13h.09l.1-.09Zm.74,0-.14,0-.09,0v.07l.14.06.14-.06Zm-.46-1h-.19v.06l.1.07h.09l.05-.07ZM15.51,27.58l.37.17.09-.07-.37-.43Zm-3.57,0,.09.13.28.07-.05-.17-.18-.09H12ZM17.55,8v0l-.19,0V8l.14,0,.09,0ZM11.89,26.21l0,.07.23.06.19-.16-.28,0Zm4.58-18.1,0-.13-.23-.07-.1-.06,0,.16.23.17ZM13.24,26.79h.09l.05,0,.09,0v-.1l-.14,0-.09.06ZM16.75,7.68l.1.07.14-.1,0-.07h-.09Zm-.13,1.38.05.17.18.06H17l.1-.09L16.9,9h-.14Zm.23-1.68.09.07,0-.13h-.14Zm.37-.13.14.13.28,0-.33-.3Zm.14-.79.19.06.09-.13-.19,0-.09,0ZM7.74,26.78l0-.1-.09,0,0,.14.09,0Zm2.93-.27v0l-.05-.07-.09,0-.09.2h.18Zm-1.26,0-.18-.33L9,26.58l.05.06Zm-.88-.49,0,0H8.34l-.09.09.14,0Zm.23,1-.19-.1-.19.1v.07l.38.27h.09v-.14a.29.29,0,0,0,0-.1A.16.16,0,0,1,8.76,27ZM10,26.86l-.18,0-.14.3L9.79,27l.14,0ZM15.24,12.4v.33l-.09.17H15A.72.72,0,0,1,15.24,12.4Zm-5,13.38-.05-.09-.23-.1,0,.13.14.1Zm5.78-14,.09,0h.19V12l-.14,0-.14-.1Zm-1.87-.5.05-.1h.14l.09.07v.2l-.23-.07Zm.75-.59.24-.07h0l-.14.2h-.14Zm1.49.46h-.14l.1-.66-.14-.1.51.27ZM8.19,30l.17-.08.45,0,.12.12-.06,0a4,4,0,0,1-.51.08H8.19Zm3.17-7.1,0-.16-.23,0-.33.37.05.06.28,0Zm-4.94,7,.11-.28.4-.08-.11.16V30l-.23,0ZM12,29.7l.11-.08.17.16h-.06v.08Zm-3.16-.6L8.89,29,9,28.9l.17.16-.06.12-.17.08ZM7,30.89,6.79,31l-.23-.24.23-.24.67.36v.08l-.11,0-.11-.08Zm3.68-10,.19-.23-.14-.07H10.5l-.14.1v.14l.1.06Zm1.87-.3.18.1.05-.1h-.05a.3.3,0,0,1-.14-.06Zm-.89-.26-.14-.13-.23,0-.19.09v.14l.28,0Zm2.77.14-.23,0-.1-.07,0,.17.14,0,.18,0Zm-2.26-.3.1,0h.09l0-.07,0-.06-.19,0Zm-.77,3.76.05.2.28-.13-.14-.2h-.14Zm1.15-4.16h0l.1-.1-.05-.07h-.09l-.1.07v.07Zm-1.32-.52.14.1.23,0,.28,0,.1-.07-.1-.29-.18,0-.33.1ZM11,23.43l0,.13.14-.2H11Zm-1,.36L9.66,24l.05.07.28,0,.14.1.09,0,0-.17Zm3.75.16-.24-.2-.14.3V24l.38.09Zm4,11.42a.82.82,0,0,0-.39.34c-.28.41-.72,0-1.1,0a1.86,1.86,0,0,1-.86-.17c-.38-.27-.1-.44-.67-.44s-1.34.58-1.86.58c0,0,.14-.24.14-.44,0-.48.09-.34-.24-.34a18,18,0,0,0-2.67.54c-.53.37.38-.61.28-.75s-.14.07-.24.07-.19,0-.28,0-.34,0-.53,0l-1,0c-.1,0-.57.11-.57,0s.33-.31.33-.4.09,0,0,0H8l0,0h-.1a2.5,2.5,0,0,1-.53.1,2.42,2.42,0,0,1-.62,0c-.19,0-.24.07-.24-.2,0,.07-.19.08,0,0l.39-.13c2-.58.72-.52-1-.52a3.5,3.5,0,0,1-1.86-.25,13.88,13.88,0,0,0-1.54-.38c-1,0,0-.34.34-.44.52-.17-1.44-.27-1.73-.37A5.61,5.61,0,0,1,0,31.89H.48c.19,0,.38-.14.52-.14s.72-.31,1-.31c0,0,.47-.1.28-.1a3.39,3.39,0,0,1-.76-.17,3.29,3.29,0,0,1-.82-.4c-.62-.44.48-.17.77-.17a9.44,9.44,0,0,0,2.12-.79c.38-.14,0-.38-.24-.55,1.36-.52,2.74-.69,3.16-2,0,0,0-.09-.06-.09H6.27c-.37,0-.78,0-1.12,0s-.5,0-.65,0,.49-.27.52-.29a6.4,6.4,0,0,1,.6-.56c.25-.1-.13-.1-.22-.1s-.4.07-.62.07l-.78,0A1.93,1.93,0,0,0,4.93,26c.12-.1.46-.12.52-.17A3.94,3.94,0,0,1,6,25.63s.58-.47.33-.47a3.11,3.11,0,0,1-.47-.07l.53-.19s.52-.21.55-.23c1-.52,1.29-1.18,1.28-1.59,0-.2-.35-.12-.07-.34,0,0,.61-.25.36-.44s-.16-.05-.37-.05A5,5,0,0,1,7,22.18a4.86,4.86,0,0,1,1.18-.71.86.86,0,0,0,.62-.95c0-.23.56-.37-.27-.37-.25,0-1.21-.1-1.08-.2s1.07-.28,1.32-.48.47-.3.68-.47a2.43,2.43,0,0,0,.42-.45,3,3,0,0,1-1.39-.33c.6,0,1.11-.24,1.5-.24.56,0,.28-.75.71-.92s.64-.23.63-.61.12-.2.25-.3c.31-.25.87-.1.94-.64a7.19,7.19,0,0,1-1.31-.21c0-.07-.13,0,0-.1s.17-.14.25-.17.38-.24.51-.27a1.7,1.7,0,0,0,.81-.61c.08-.17.16-.48-.19-.48s.25-.4-.4-.4c-.35,0-.09-.14,0-.14.38,0,.88-.74.87-1-.39,0-.53-.06-.93-.06a3.72,3.72,0,0,1-1.08-.2c.25-.1,1.62-.31,1.61-.75,0-.14.16-.31.16-.41s-.31-.34-.53-.37a4.09,4.09,0,0,1,.69-.07,2,2,0,0,0,.41-.17l.39-.1c.08,0,.16-.31.2-.34a.13.13,0,0,0,0-.1c0-.07.13-.21.17-.27A.48.48,0,0,0,14.31,9c0-.11.12-.27.12-.31s.29-.17.29-.2,0,0,0-.07a2.2,2.2,0,0,0-.15-.26L13.81,8l.12-.11.17-.17c.06,0,.12-.17.17-.22s.23-.22.11-.33-.72,0-.78,0a2.51,2.51,0,0,1-.72-.33c-.07-.06-.13-.11,0-.11h.9c.42,0,1.5,0,1.48-.33,0-.06-.42-.11-.48-.11l.72-.17A16.71,16.71,0,0,0,17,4.45s0-.16-.07-.16A.29.29,0,0,1,16.61,4a2.19,2.19,0,0,1,.29-.39h-.18c-.18,0-.36-.06-.54-.06a5.58,5.58,0,0,0,.88-.71,8.89,8.89,0,0,0,.62-1l.12-.28a3.45,3.45,0,0,0,.39-.82A2.53,2.53,0,0,1,18.41,0c-.21.51.52,1.23.8,1.65s.33,1.08,1,1.31a2.17,2.17,0,0,1-.74.16c-.17,0,.09.36.09.36s.11.21.19.27c.31.22-.64.2-.33.42s.47.86.69.94.89.61,1.28.61c-.19,0-.59.11-.78.11s.11.39.11.41a.84.84,0,0,0,.42.67c.06,0,.25.08.3.12s.14.12.22.17-.63,0-.46.11a2.27,2.27,0,0,1,.52.51c.06.1.78.43.78.33-.07.12-.64.2-.4.38s-.19.21-.26.23c-.4.15.42.71.59.71,0,0-.35.09-.2.15s.21.19.3.26a2.69,2.69,0,0,0,.7.3c.15,0,.26.07,0,.07s-.18,0-.25,0l-.22,0c-.09.15-.18.46.14.46s.25.07.25.25.51.35.68.35.32.31.66.31c-.18,0-.43.05-.62.05s0,.19,0,.23,0,.22.12.28a3,3,0,0,0,.86.22c.53,0,.14,0,0,.1s-.2.09,0,.21a1.67,1.67,0,0,0,.67.14c.16,0,.7.08.7.07a4,4,0,0,0-.7.19,2.59,2.59,0,0,1-.6.1c-.19,0-.24,0-.24.14s-.55.06-.6.09-.31.31-.15.43.32.2.26.24c-.3.21,1.3.72,1.25.75s-.21,0-.13.08a3.62,3.62,0,0,0,.47.13c.24.09.5.45.92.45-.2,0-.4,0-.56,0s0,.2,0,.24a.23.23,0,0,1-.12.21s-.18.07-.07.15a1.67,1.67,0,0,1,.25.28,1.5,1.5,0,0,0,.34.25l.2.13c.06,0,.08,0-.08,0h-.6c-.16,0-.08,0-.08.05-.37,0-.46.08-.34.25a1.79,1.79,0,0,0,.89.65,2.05,2.05,0,0,1,.37.2c0,.09.34.15.09.15s-.7.09-.43.17.52.44,1,.44c.34,0,1,.18,1.26.18-.27,0-.58.06-.89.06s.21.22-.21.22c-.22,0-.46,0-.46.08s-.25.18-.4.18a1.59,1.59,0,0,0-.37,0,.9.9,0,0,0,.27.54c.28.2.8.2,1.05.37.09.07.95.33.95.16-.12.52.61.37.95.61.09.06.37.15.43.19a3.49,3.49,0,0,0,.34.15,2.92,2.92,0,0,1-.84.31c-.4,0-.89,0-1.38,0-2.89,0-.32.43-.32,1.85,0,.53,1.72.45,1.72,1,0,.15.53.38.59.41.64.46.1,0-.54,0-.49,0,.75,1,1.61,1,.21,0,1.23.19.86.19s-.92.19-1.24.19a1.23,1.23,0,0,1-.53.08c-.27,0-.48,0-.75,0s-.17.19-.17.34.33.46.44.53a.25.25,0,0,0,.15,0c.11,0,.38.23.49.23A4.18,4.18,0,0,1,31,28h.1c.11.08-.59.19-.69.19-.27,0-.81,0-1,0-.64,0,1,1.18,1.37,1.13a7.37,7.37,0,0,1,.77.14s.54.16.36.18c-.58.07-.51.52,0,.45.73-.09.66,1.06,1.84.91.09,0,1,.15.93.06a1.38,1.38,0,0,1-.91.2c-.19,0-.34.11-.31.24s.36.32.63.34c.83.07,1.39.59,2,.41a5.93,5.93,0,0,1-1.72.54c-1.32.22-2.91.24-1.7.4.19,0-2.3.05-2.43,0-.84.3,1.39.8-.43,1-.36,0-2.21,0-2,.16.48.5-2.47.54-3.2.88-.22.09-.54.38-.86.38s-1.58-.3-1.54-.3c0,.29-.49.29-.9.29l-.72-.19a3.68,3.68,0,0,0-1.18-.07,3,3,0,0,1-.42,0,13.13,13.13,0,0,0,.52,2.82c.09.28.44.39.61.51s.07.29.2.38c.62.43,2.28.11,3,.38.54.19,1.22.19,1.83.41H10.92c.85,0,1.36-.41,2.1-.41a7.47,7.47,0,0,0,.82,0,7.74,7.74,0,0,1,2.44-.29,1.67,1.67,0,0,0,.79-.31,3.65,3.65,0,0,0,.46-1.68A14.22,14.22,0,0,0,17.74,35.37Z"/></g></g></svg>