<svg xmlns="http://www.w3.org/2000/svg" viewBox="0 0 216.34 226.34"><defs><style>.cls-1{fill:#133aab;}</style></defs><g id="Layer_2" data-name="Layer 2"><g id="Layer_1-2" data-name="Layer 1"><path class="cls-1" d="M212.13,180l-24-16.73-21.32-14.87a9.17,9.17,0,0,0-12.68,2.15L141,168.28a9.12,9.12,0,0,1-12,2.6c-9-5.21-19.54-10.11-42.9-34.58S58,100.79,53,91.42A10.13,10.13,0,0,1,55.5,78.87l17-13.8A10.2,10.2,0,0,0,74.52,51.8L60.74,30.18,44.31,4.4a9.19,9.19,0,0,0-12.71-3l-19,11.89A24.08,24.08,0,0,0,2.14,27.53C-3,47.29-4.08,90.89,62.7,160.75S171.14,229.52,190,224.1a23.36,23.36,0,0,0,13.6-11L215,193.28A10.14,10.14,0,0,0,212.13,180Z"/><path class="cls-1" d="M123.09,35.12c35,0,63.37,29.72,63.41,66.34a3.73,3.73,0,1,0,7.46,0c-.05-40.93-31.75-74.1-70.87-74.14a3.9,3.9,0,0,0,0,7.8Z"/><path class="cls-1" d="M123.09,58.53c22.65,0,41,19.24,41,42.93a3.73,3.73,0,1,0,7.46,0c0-28-21.72-50.7-48.49-50.73a3.9,3.9,0,0,0,0,7.8Z"/><path class="cls-1" d="M123.09,82c10.29,0,18.64,8.74,18.65,19.51a3.73,3.73,0,1,0,7.46,0c0-15.08-11.7-27.3-26.11-27.32a3.91,3.91,0,0,0,0,7.81Z"/></g></g></svg>