<svg enable-background="new 0 0 32 32" height="512" viewBox="0 0 32 32" width="512" xmlns="http://www.w3.org/2000/svg"><g id="BG"><path d="m26 32h-20c-3.314 0-6-2.686-6-6v-20c0-3.314 2.686-6 6-6h20c3.314 0 6 2.686 6 6v20c0 3.314-2.686 6-6 6z" fill="#ffe6e2"/></g><g id="bold"><g><path d="m16.667 23.386v-2c0-.368-.298-.667-.667-.667-.368 0-.667.298-.667.667v2c0 .368.298.667.667.667.368 0 .667-.298.667-.667z" fill="#fd907e"/></g><path d="m21.902 21.227-2.867-3.883c-.164-.222-.478-.269-.699-.105-.133.098-.194.249-.194.402h-4.284c0-.153-.062-.304-.194-.402-.222-.164-.535-.117-.699.105l-2.867 3.883c-.112.152-.129.354-.044.522.085.169.257.275.446.275h11c.189 0 .361-.106.446-.275.085-.168.068-.37-.044-.522z" fill="#fd907e"/><g fill="#fc573b"><path d="m19.91 13.266-3.5-5c-.187-.267-.632-.267-.819 0l-3.5 5c-.107.153-.12.352-.034.518.086.165.257.269.443.269h7c.187 0 .357-.104.443-.269.087-.166.074-.365-.033-.518z"/><path d="m21.231 17.25-2.892-3.794c-.168-.22-.481-.262-.701-.095-.129.098-.188.247-.189.398h-2.899c0-.151-.06-.299-.189-.398-.219-.167-.533-.125-.701.095l-2.892 3.794c-.115.151-.135.354-.05.525.085.17.258.278.448.278h9.667c.19 0 .364-.108.448-.278.085-.171.065-.374-.05-.525z"/></g></g></svg>