<svg xmlns="http://www.w3.org/2000/svg" viewBox="0 0 240.59 218.45"><defs><style>.cls-1{fill:#133aab;}</style></defs><g id="Layer_2" data-name="Layer 2"><g id="Layer_1-2" data-name="Layer 1"><path class="cls-1" d="M175,218.45a20.46,20.46,0,0,1-5.11-.65l-155-41.12A20,20,0,0,1,.66,152.35L20.21,80.14a5,5,0,0,1,6.14-3.51A5,5,0,0,1,29.9,82.7L10.35,154.89a10.07,10.07,0,0,0,7.12,12.21l155,41.1a10,10,0,0,0,12.2-7l7.83-28.74a5,5,0,0,1,9.68,2.58l-7.82,28.7A20,20,0,0,1,175,218.45Z"/><path class="cls-1" d="M220.53,158.88H60.14a20,20,0,0,1-20-19.86V19.86A20,20,0,0,1,60.14,0H220.53a20,20,0,0,1,20.05,19.86V139A20,20,0,0,1,220.53,158.88ZM60.14,9.93a10,10,0,0,0-10,9.93V139a10,10,0,0,0,10,9.93H220.53a10,10,0,0,0,10-9.93V19.86a10,10,0,0,0-10-9.93Z"/><path class="cls-1" d="M90.22,69.51a19.86,19.86,0,1,1,20-19.86A20,20,0,0,1,90.22,69.51Zm0-29.79a9.93,9.93,0,1,0,10,9.93A10,10,0,0,0,90.22,39.72Z"/><path class="cls-1" d="M45.81,148.25a5.06,5.06,0,0,1-3.55-1.45,4.93,4.93,0,0,1,0-7L89.6,92.88a15.52,15.52,0,0,1,21.27,0l14.09,14,39-46.37a15.11,15.11,0,0,1,11.44-5.36h.11A15.09,15.09,0,0,1,187,60.3l52.43,60.59a4.93,4.93,0,0,1-.54,7,5,5,0,0,1-7.07-.53L179.34,66.77A5,5,0,0,0,175.53,65a5.33,5.33,0,0,0-3.84,1.79l-42.54,50.55a5,5,0,0,1-3.63,1.78,4.87,4.87,0,0,1-3.77-1.45l-18-17.81a5.2,5.2,0,0,0-7.09,0L49.35,146.8a5.05,5.05,0,0,1-3.54,1.45Z"/></g></g></svg>