<svg xmlns="http://www.w3.org/2000/svg" viewBox="0 0 248.53 247.31"><defs><style>.cls-1{fill:#133aab;}</style></defs><g id="Layer_2" data-name="Layer 2"><g id="Layer_1-2" data-name="Layer 1"><path class="cls-1" d="M124.27,0C55.75,0,0,55.47,0,123.66S55.75,247.31,124.27,247.31s124.26-55.47,124.26-123.65S192.79,0,124.27,0Zm0,224.83c-56.07,0-101.68-45.39-101.68-101.17S68.2,22.48,124.27,22.48,225.94,67.87,225.94,123.66,180.33,224.83,124.27,224.83Z"/><path class="cls-1" d="M124.27,97.43A11.27,11.27,0,0,0,113,108.67v74.94a11.3,11.3,0,0,0,22.59,0V108.67A11.26,11.26,0,0,0,124.27,97.43Z"/><path class="cls-1" d="M124.27,52.46a11.27,11.27,0,1,0,8,3.3A11.37,11.37,0,0,0,124.27,52.46Z"/></g></g></svg>