<svg xmlns="http://www.w3.org/2000/svg" viewBox="0 0 100 59"><defs><style>.cls-1,.cls-2{fill:#2f455f;}.cls-1{fill-rule:evenodd;}.cls-2{font-size:5.12px;font-family:Rockwell-Bold, Rockwell;font-weight:700;letter-spacing:0.1em;}.cls-3,.cls-5{font-family:Roboto-Bold, Roboto;}.cls-4{letter-spacing:0.1em;}.cls-5,.cls-6{letter-spacing:0.1em;}.cls-7{letter-spacing:0.04em;}</style></defs><g id="Layer_2" data-name="Layer 2"><g id="Layer_1-2" data-name="Layer 1"><path class="cls-1" d="M50,46.89c27.54,0,50,.25,50,.57S77.54,48,50,48s-50-.25-50-.56,22.46-.57,50-.57"/><path class="cls-1" d="M50,49c15.94,0,28.93.22,28.93.5S65.94,50,50,50s-28.93-.22-28.93-.49S34.06,49,50,49"/><path class="cls-1" d="M50,51.13c9.12,0,16.56.19,16.56.43S59.12,52,50,52s-16.56-.19-16.56-.43,7.44-.43,16.56-.43"/><path class="cls-1" d="M46.31,28.32l-.2-.23-.11.35v-.08l.31.12m-3.18-.36-.32.2,0,.08.24,0,.12.11.08,0,0-.19Zm.81-.42,0,.15.12-.23H44Zm.83-5.65.12.12.2,0,.24,0,.08-.08-.08-.35-.16,0-.28.12Zm1.12.61h0l.08-.11,0-.08h-.08l-.08.08v.08Zm-1.63,5.62,0,.24.23-.16-.12-.23H44.3Zm1.31-5.15.08,0h.08l0-.08,0-.07-.16,0Zm1.92.36-.2,0-.07-.08,0,.19.11,0,.16,0Zm-2.35-.16L45,23.17l-.2,0-.16.12v.16l.24,0Zm.75.31.16.12,0-.12h0s-.07,0-.12-.08ZM44.31,24l.15-.27-.11-.08h-.16l-.12.12v.15l.08.08Zm-3.8,12.53-.15.1-.19-.28.19-.29.58.43v.09l-.1,0-.09-.1Zm1.59-2.11,0-.14.1-.1.14.19,0,.14-.14.1Zm2.69.71.1-.1.14.19H45v.1Zm-4.74.16.1-.33.33-.09-.09.19v.37l-.19,0ZM44.25,27l0-.2-.2,0-.27.43,0,.08.23,0Zm-2.69,8.39.15-.09.38,0,.09.14,0,.05-.43.09h-.15Zm7-22.19h-.12l.08-.78-.12-.12.44.31Zm-1.27-.55.2-.08h0l-.12.24h-.12Zm-.64.7,0-.11h.12l.08.07v.24l-.2-.08Zm1.59.59.08,0h.16v.24l-.12,0-.12-.12ZM43.31,30.48l0-.11-.2-.12,0,.16.12.11Zm4.25-15.82v.39l-.08.2h-.16A1,1,0,0,1,47.56,14.66Zm-4.48,17.1-.16,0-.12.35.12-.19.12,0ZM42,32l-.16-.11-.16.11V32l.32.31h.08V32.2a.24.24,0,0,0,0-.12A.24.24,0,0,1,42,32Zm-.19-1.16,0,0h-.12l-.08.11.12,0Zm.75.58L42.44,31l-.16.43,0,.08Zm1.07,0v0l0-.07-.08,0-.08.24h.16Zm-2.5.32,0-.12-.08,0,0,.16.08,0Zm8.19-24,.16.07.08-.15-.16,0-.08,0Zm-.12.93.12.16.24,0-.28-.35Zm-.31.16.08.08,0-.16h-.11Zm-.2,2,0,.2.16.08h.12l.08-.12L49,10.64h-.12Zm.12-1.63.08.08L49,9,49,9h-.08Zm-3,22.59h.08l0,0,.08,0v-.11l-.12,0-.08.07ZM48.61,9.59l0-.16-.2-.08-.08-.07,0,.19.2.2ZM44.7,31l0,.08.2.07L45.1,31l-.24,0ZM49.52,9.43v0l-.16,0v.08l.12,0,.08,0ZM44.75,32.61l.08.16.23.07,0-.19-.15-.12h-.08Zm3,0,.32.2.08-.08-.32-.51Zm1.76-16.26h-.16v.08l.08.08h.08l0-.08Zm.4,1.17-.12,0-.08,0v.08l.12.08L50,17.6Zm-.64,0h-.08l-.08,0,0,.16h.08l.08-.12Zm-3.57,3.13.08-.15-.08-.08-.12.12,0,.15Zm-.3-1.1,0,.12.16.08.16,0-.12-.2Zm-.54.65.08.11.24-.08.12-.19-.16-.12L45,20Zm-6,16.64-.1.14v.29l.14.19.1-.24A1.7,1.7,0,0,0,38.9,36.84Zm2.68.19.24.71V37.5l.24-.09A1.58,1.58,0,0,0,41.58,37ZM41,38l-.39,0,.1.14.48.09V38Zm1.58.19L42.4,38h0l-.05.15.19.14Zm.63-.68.43,0H44l.05-.09-.43-.24ZM48.12,18l-.2,0,.12.36.08-.08Zm-.64,0,.12.08.16-.15a.51.51,0,0,1-.24,0Zm1.43-.43,0,.08h.12l0-.11,0-.12ZM47.52,17v.23l.08.2.16,0,.28-.16.12-.31L48,16.88l-.4.08-.16-.08v0Zm-1.23-.16-.23.43v.12l.47-.35-.16-.2Zm1-.35h-.24l-.2.16.12.11h.2l.12-.11Zm2.4,25.33a.83.83,0,0,0-.34.4c-.24.48-.61,0-.93,0a1.26,1.26,0,0,1-.74-.2c-.32-.32-.08-.52-.56-.52s-1.14.68-1.59.68c0,0,.12-.28.12-.52,0-.56.08-.41-.2-.41a11.21,11.21,0,0,0-2.28.65c-.44.44.33-.72.25-.88-.09,0-.13.08-.21.08s-.16,0-.24,0-.29,0-.45,0-.61,0-.85,0c-.08,0-.49.12-.49,0s.28-.37.28-.48.08,0,0,0h0l0,0H41.3a1.41,1.41,0,0,1-.45.12,1.67,1.67,0,0,1-.52,0c-.17-.06-.21.09-.21-.24,0,.09-.16.09,0,0s.24-.12.33-.15c1.73-.69.62-.61-.81-.61-.73,0-1.27,0-1.59-.31a10,10,0,0,0-1.31-.44c-.89,0,0-.4.29-.52.44-.21-1.22-.32-1.47-.44s-.61-.12-1-.44H35c.17,0,.33-.16.45-.16s.61-.36.85-.36c0,0,.41-.12.25-.12a2.6,2.6,0,0,1-.65-.2,2.52,2.52,0,0,1-.69-.48c-.53-.53.4-.2.65-.2.48,0,1.39-.74,1.8-.94s0-.44-.21-.64c1.16-.62,2.34-.82,2.7-2.31,0,0,0-.11,0-.11h-.16c-.32,0-.67-.06-1-.06s-.42,0-.56,0,.42-.32.45-.35a6.45,6.45,0,0,1,.51-.66c.21-.11-.11-.12-.19-.12s-.34.09-.53.09L38,31a1.28,1.28,0,0,0,.79-.26c.1-.12.4-.14.45-.2a3.42,3.42,0,0,1,.47-.26s.49-.55.28-.55a1.57,1.57,0,0,1-.4-.09,4.74,4.74,0,0,0,.44-.23l.47-.26c.67-.5.76-.6.78-1a3,3,0,0,1,.64-.44,1.27,1.27,0,0,0,.39-.37c0-.09-.16-.12-.3-.14s-.88.14-.74,0,.53-.29.31-.52-.14-.06-.32-.06c-.4,0-.35-.29-.73-.39a4.09,4.09,0,0,1,1-.85c.32-.16.73.07.95-.15A1.53,1.53,0,0,1,43,25.1a.74.74,0,0,0,.18.23l.26-.28s.21,0,.27,0,.35-.2.47-.2.25,0,.25-.2-.11,0-.36,0h-.46c-.09-.08-.56.07-.57,0a.42.42,0,0,0-.07-.24c-.12-.16-.44-.23-.5-.29a.88.88,0,0,0-.67-.22c-.21,0-1-.12-.92-.24s.91-.32,1.13-.56.57.08.7,0,.65-.2.71-.27-.32-.32-.17-.38c.32-.13.43-.29.4-.29a4.8,4.8,0,0,1-1.89-.5c.51,0,.95-.28,1.28-.28a6.24,6.24,0,0,0,1.43-.52c.13-.09,0-.33.07-.44s-1.05-.05-.9-.13a.75.75,0,0,0,.54-.72c0-.36.1-.24.21-.36.26-.29.74-.11.8-.75a4.87,4.87,0,0,1-1.12-.25c0-.08-.11,0,0-.12s.14-.16.21-.2a4.19,4.19,0,0,1,.44-.32,1.53,1.53,0,0,0,.68-.72c.07-.2.14-.56-.16-.56s.21-.48-.34-.48c-.29,0-.08-.16,0-.16a2.22,2.22,0,0,0,1-.71c.08-.13.67-.64.59-.71s-.84.29-.84.21c-.33,0-.46-.07-.79-.07s-1-.19-.92-.24,1.76-.59,1.75-1.11c0-.16.14-.36.14-.48s-.27-.4-.46-.44a2.4,2.4,0,0,1,.59-.08c.08,0,.28-.17.35-.21l.33-.12c.08,0,.14-.36.18-.4a.21.21,0,0,0,0-.12,1.48,1.48,0,0,1,.14-.32.63.63,0,0,0,.07-.32,2.13,2.13,0,0,1,.1-.36c0-.08.25-.2.25-.24s0,0,0-.08A4.5,4.5,0,0,0,47,9.65l-.62-.2.42-.18.14-.19c.05-.07.1-.2.15-.26s.2-.27.09-.39-.93,0-1,0A1.64,1.64,0,0,1,45.55,8c-.06-.06-.11-.13,0-.13h.77c.35,0,1.6-.5,1.59-.89,0-.07-.36-.13-.41-.13l.61-.2c.48-.46.5-.82.94-1.4,0,0,0-.2,0-.2s-.26-.13-.26-.32A2.76,2.76,0,0,1,49,4.29h-.15c-.15,0-.31-.07-.46-.07a5.49,5.49,0,0,0,.75-.84c0-.06.53-1.17.53-1.23l.1-.33a5.26,5.26,0,0,0,.33-1A3.82,3.82,0,0,1,50.26,0c-.18.61.44,1.46.68,2s.28,1.28.86,1.55a1.59,1.59,0,0,1-.63.19c-.14,0,.07.42.07.42s.09.25.17.33c.25.25-.55.23-.29.49s.4,1,.59,1.12.76.72,1.09.72c-.17,0-.5.12-.66.12s.09.46.09.49a1.11,1.11,0,0,0,.36.79s.21.09.25.14l.19.21c.08.07-.54,0-.4.12a2.41,2.41,0,0,1,.45.6c.05.12.66.52.66.4-.06.13-.54.24-.33.45s-.17.24-.22.27c-.35.17.35.84.49.84,0,0-.29.11-.16.17s.17.23.25.31a1.88,1.88,0,0,0,.6.36c.13,0,.22.08,0,.08s-.15.05-.21.05l-.19,0c0,.08-.45-.17-.5-.06a.5.5,0,0,0,0,.46,3,3,0,0,0,.37.46,3.77,3.77,0,0,0,1,.39c.21,0,.27.37.56.37-.15,0-.36.06-.53.06s0,.22,0,.27,0,.26.1.34a2.16,2.16,0,0,0,.74.25c.45,0,.12,0,0,.12s-.17.11,0,.25a1.09,1.09,0,0,0,.56.16c.14,0,.6.1.6.09a2.71,2.71,0,0,0-.6.22,1.82,1.82,0,0,1-.51.12c-.16,0-.2,0-.2.16s-.47.07-.51.12-.26.36-.13.5.28.23.23.28c-.26.25,1.1.85,1.06.89s-.18,0-.12.1a2.86,2.86,0,0,0,.41.15c.21.1.43.53.78.53-.17,0-.34,0-.47,0s0,.23,0,.28a.31.31,0,0,1-.1.25s-.15.09-.07.17a1.72,1.72,0,0,1,.22.33,1.38,1.38,0,0,0,.29.3,1.25,1.25,0,0,1,.17.16c.05,0,.07,0-.06,0H56.8c-.14,0-.07,0-.07.06-.32,0-.4.09-.29.3a1.64,1.64,0,0,0,.75.77,1.47,1.47,0,0,1,.32.23c0,.1.28.18.08.18s-.6.1-.37.21.44.51.86.51.84.21,1.07.21c-.23,0-.5.07-.76.07s.19.26-.18.26c-.18,0-.39,0-.39.1s-.21.21-.34.21-.31,0-.31,0a1.14,1.14,0,0,0,.44,1c.07.08,1,.45,1,.25-.1.61.23.42.51.69.08.08.32.18.37.24l.52.6s-.52,0-.65,0,.15.24,0,.23-.93-.28-1.13-.28a6.69,6.69,0,0,0-.81,0c-.1,0-.24-.13-.34-.19s-.44-.06-.44.35.73.21.86.32a2.36,2.36,0,0,1,1,1.67c0,.63,1.46.54,1.46,1.21,0,.18.46.45.5.5.55.54.09,0-.45,0S60.55,31,61.28,31c.18,0,1,.22.73.22s-.78.23-1,.23a.86.86,0,0,1-.46.09c-.23,0-.41,0-.64,0s-.14.23-.14.41a1.26,1.26,0,0,0,.37.63.18.18,0,0,0,.14,0c.09,0,.32.26.41.26a3,3,0,0,1,.36.19h.09c.1.09-.5.22-.59.22s-.69,0-.82,0c-.54,0,.82,1.4,1.16,1.34a4.21,4.21,0,0,1,.66.16s.46.19.31.22c-.5.08-.44.61,0,.53.62-.1.56,1.25,1.57,1.08.08,0,.81.17.79.06a.93.93,0,0,1-.78.24.25.25,0,0,0-.26.28c0,.19.31.38.54.41.7.08,1.18.69,1.73.49a4.37,4.37,0,0,1-1.46.63c-1.12.25-2.48.29-1.44.48.15,0-2,0-2.07,0-.72.35,1.18.95-.38,1.22-.3,0-1.87-.05-1.7.19.41.59-2.1.64-2.72,1-.19.12-.47.46-.74.46a11.85,11.85,0,0,1-1.3-.36c0,.34-.43.34-.77.34l-.62-.22a2.32,2.32,0,0,0-1-.08,2.09,2.09,0,0,1-.35,0,21.32,21.32,0,0,0,.43,3.34c.08.33.38.45.52.59s.06.35.18.46c.52.51,1.94.13,2.57.45.46.22,1,.22,1.56.48H43.88c.72,0,1.16-.48,1.79-.48a4,4,0,0,0,.69,0,4.76,4.76,0,0,1,2.08-.35,1.16,1.16,0,0,0,.67-.36,5.88,5.88,0,0,0,.4-2C49.6,43.26,49.66,42.54,49.69,41.82Z"/><path class="cls-1" d="M63.14,32.52,63,32.33l-.1.28v-.06l.25.09m-2.47-.28-.25.16,0,.06.19,0,.09.09.06,0,0-.15ZM61.3,32l0,.12.09-.18h-.09Zm.13-3.84.09.09.16,0,.18,0,.06-.06L61.86,28l-.12,0-.22.09Zm.87.48h0l.06-.09,0-.07H62.3l-.06.07v.06Zm-.76,3.82,0,.18.19-.12-.09-.18h-.1ZM62.05,29l.06,0h.07l0-.06,0-.06-.13,0Zm1.49.28-.15,0-.06-.06,0,.15.09,0,.12,0Zm-1.83-.13-.09-.12-.15,0-.12.09v.12l.18,0Zm.59.24.12.1,0-.1h0s-.05,0-.09-.06Zm-1.23.28.12-.21-.09-.07H61l-.1.1v.12l.07.06Zm-2.44,9.19-.11.07-.15-.22.15-.22.45.33v.07l-.08,0-.07-.07Zm1.24-1.65,0-.11.07-.07.11.15,0,.11-.11.07Zm2.09.55.07-.07.11.15h0v.07Zm-3.68.13.07-.25.26-.08-.07.15V38l-.15,0Zm3.26-6.41,0-.16-.15,0-.22.34,0,.06.19,0ZM59.45,38l.11-.07.3,0,.07.11,0,0-.34.07h-.11Zm5.43-17.23h-.1l.06-.61-.09-.09.34.25Zm-1-.42.16-.06h0l-.1.18h-.09Zm-.49.54,0-.09h.09l.06.06v.18L63.43,21Zm1.23.46.06,0h.12v.18l-.09,0-.09-.09ZM60.81,34.2l0-.09L60.62,34l0,.12.09.09Zm3.3-12.29v.31l-.06.15h-.13A.75.75,0,0,1,64.11,21.91ZM60.63,35.19l-.13,0-.09.27.09-.15.1,0Zm-.81.16-.12-.1-.12.1v.06l.24.24h.06v-.12a.23.23,0,0,0,0-.09A.23.23,0,0,1,59.82,35.35Zm-.15-.91,0,0h-.09l-.06.09.09,0Zm.58.45-.12-.3-.12.34L60,35Zm.84,0v0l0-.06-.07,0-.06.19h.13Zm-1.94.25,0-.09-.07,0,0,.12.07,0Zm6.36-18.65.12.06.06-.13-.12,0-.06,0Zm-.09.72.09.12.18,0-.21-.27Zm-.25.12.06.06,0-.12h-.09ZM65,18.85l0,.15.12.06h.09l.07-.09-.13-.18h-.09Zm.09-1.27.06.06.09-.09,0-.06h-.06ZM62.78,35.12h.07l0,0,.06,0V35l-.09,0-.07.06ZM64.92,18l0-.12-.15-.06-.06-.06,0,.15.15.15Zm-3,16.62,0,.06.15.06.13-.15-.19,0Zm3.74-16.74v0l-.12,0v.06l.09,0,.06,0Zm-3.71,18L62,36l.18.06,0-.15L62,35.79H62Zm2.36,0,.25.15.06-.06-.25-.39Zm1.37-12.63h-.13v.06l.06.06h.07l0-.06Zm.3.91-.09,0-.06,0v.06l.09.06.09-.06Zm-.49,0H65.4l-.06,0,0,.12h.06l.06-.09Zm-2.77,2.43.06-.12-.06-.06-.09.09,0,.12Zm-.24-.85,0,.09.12.06.13,0-.1-.15Zm-.41.5.06.09.18-.06.09-.15L62.25,26l-.15.06ZM57.38,39.13l-.07.11v.22l.11.15.07-.18A1.52,1.52,0,0,0,57.38,39.13Zm2.08.15.19.55v-.18l.19-.08A1.42,1.42,0,0,0,59.46,39.28Zm-.44.77-.3,0,.07.11.38.07V40Zm1.23.15-.15-.15h0l0,.11.15.11Zm.49-.53.33,0h.26l0-.07L61,39.45Zm3.8-15.19-.15,0,.09.27.06-.06Zm-.49,0,.09.06.12-.12a.31.31,0,0,1-.18,0Zm1.11-.33,0,.06h.09l0-.09,0-.09Zm-1.08-.4v.19l.06.15.12,0,.22-.12.09-.25-.09-.09-.31.06-.12-.06v0Zm-.95-.12-.19.34V24l.37-.28-.12-.15Zm.77-.27h-.19l-.15.12.09.09h.15l.1-.09ZM66.25,43a.64.64,0,0,1,.26.31c.18.38.47,0,.72,0a.9.9,0,0,0,.57-.16c.25-.24.07-.4.44-.4s.89.53,1.24.53c0,0-.1-.22-.1-.41,0-.43-.06-.31.16-.31a9.14,9.14,0,0,1,1.77.5c.34.34-.26-.56-.19-.68s.09.06.16.06l.18,0c.07,0,.22,0,.35,0l.66,0c.07,0,.38.1.38,0s-.22-.28-.22-.37-.06,0,0,0h0l0,0h.07a1.12,1.12,0,0,0,.35.09,1.37,1.37,0,0,0,.41,0c.12,0,.15.06.15-.19,0,.07.13.07,0,0l-.25-.12c-1.34-.53-.48-.47.63-.47.57,0,1,0,1.23-.24a7.61,7.61,0,0,1,1-.34c.69,0,0-.32-.23-.4s.95-.25,1.14-.35.48-.09.79-.34h-.31c-.13,0-.26-.12-.35-.12s-.48-.29-.66-.29-.32-.09-.19-.09a1.94,1.94,0,0,0,.5-.15,2,2,0,0,0,.54-.38c.41-.4-.32-.15-.51-.15-.37,0-1.08-.58-1.39-.73s0-.34.15-.5c-.89-.48-1.81-.63-2.09-1.79,0,0,0-.09,0-.09h.13c.24,0,.51,0,.74,0l.43,0c.08,0-.32-.24-.34-.27s-.34-.48-.4-.51.08-.09.15-.09.26.06.4.06l.52,0a1,1,0,0,1-.61-.2c-.08-.09-.31-.11-.35-.16l-.37-.2s-.38-.42-.21-.42a1.55,1.55,0,0,0,.31-.07l-.35-.18-.36-.2a1.92,1.92,0,0,1-.85-1.47c0-.18.23-.11,0-.31,0,0-.41-.23-.24-.4s.1-.05.24-.05a2.55,2.55,0,0,0,.78-.06,3.22,3.22,0,0,0-.79-.65.89.89,0,0,1-.41-.87c0-.22-.36-.35.18-.35.17,0,.8-.09.72-.18s-.71-.25-.87-.44-.31-.28-.45-.43a1.83,1.83,0,0,1-.28-.41,1.5,1.5,0,0,0,.92-.31c-.4,0-.74-.22-1-.22s-.18-.68-.46-.84a.57.57,0,0,1-.42-.56c0-.28-.08-.18-.16-.28s-.58-.09-.62-.58a4.07,4.07,0,0,0,.86-.2c0-.06.09,0,0-.09s-.11-.13-.16-.16a3.33,3.33,0,0,0-.34-.24,1.25,1.25,0,0,1-.53-.56c-.06-.16-.11-.44.12-.44s-.16-.37.27-.37c.23,0,.06-.13,0-.13-.25,0-.58-.68-.58-.93.26,0,.36-.06.62-.06s.78-.15.71-.18-1.07-.29-1.06-.69c0-.13-.11-.28-.11-.38s.21-.31.36-.34a1.9,1.9,0,0,0-.46-.06c-.06,0-.22-.13-.28-.16l-.25-.09c-.06,0-.11-.28-.13-.31a.14.14,0,0,1,0-.1.91.91,0,0,0-.11-.25.49.49,0,0,1,0-.25,2,2,0,0,0-.08-.28c0-.06-.2-.15-.2-.18s0,0,0-.07a1.6,1.6,0,0,1,.1-.23l.48-.15-.08-.11-.12-.15a2,2,0,0,0-.11-.2c0-.05-.15-.2-.07-.3s.47,0,.51-.05a1.39,1.39,0,0,0,.48-.3c0-.05.08-.1,0-.1h-.6c-.27,0-1,0-1-.31,0-.05.28-.1.32-.1l-.47-.15a16.08,16.08,0,0,1-1-1.49s0-.15.05-.15.2-.1.2-.25a2.21,2.21,0,0,0-.19-.35h.12c.12,0,.24,0,.36,0a3.66,3.66,0,0,1-.58-.66,10,10,0,0,1-.42-1l-.07-.25a4,4,0,0,1-.26-.76,3,3,0,0,0-.15-.65c.14.47-.34,1.13-.53,1.51s-.21,1-.66,1.21a1.16,1.16,0,0,0,.49.14c.11,0-.06.33-.06.33s-.07.19-.13.25.42.18.22.38-.31.8-.46.87-.58.56-.84.56a5,5,0,0,0,.51.09c.08,0-.07.37-.07.38a.84.84,0,0,1-.28.62s-.16.07-.2.11l-.14.16c-.06.06.42,0,.31.09a2,2,0,0,0-.35.47c0,.09-.51.4-.51.31,0,.1.42.19.26.35s.12.19.17.21c.27.13-.27.65-.39.65s.23.09.13.14-.13.17-.2.23a1.42,1.42,0,0,1-.46.29c-.1,0-.17.06,0,.06l.16,0,.14,0c.06.14.12.42-.09.42s-.16.07-.16.23-.34.32-.45.32-.21.29-.43.29c.11,0,.28.05.4.05s0,.17,0,.2,0,.21-.08.27a1.6,1.6,0,0,1-.57.19c-.35,0-.09,0,0,.09s.13.09,0,.2a.79.79,0,0,1-.44.13c-.1,0-.46.07-.46.06a2.54,2.54,0,0,1,.46.17,1.17,1.17,0,0,0,.4.1c.12,0,.16,0,.16.12s.36.06.39.09.2.29.1.39-.21.18-.17.22c.19.2-.86.67-.83.69s.14,0,.09.08a2.38,2.38,0,0,1-.32.12c-.15.08-.32.41-.6.41.13,0,.26,0,.37,0s0,.18,0,.22a.24.24,0,0,0,.08.19s.12.07.06.13a1.45,1.45,0,0,0-.17.26,1.73,1.73,0,0,1-.23.24s-.1.09-.13.11-.05,0,0,0h.4c.1,0,.05,0,.05,0,.24,0,.31.08.22.24a1.23,1.23,0,0,1-.58.59,1.26,1.26,0,0,0-.24.19c0,.08-.23.13-.07.13s.47.08.29.16-.35.4-.67.4-.65.17-.83.17c.18,0,.38.05.59.05s-.15.2.14.2.3,0,.3.08.16.16.27.16.24,0,.24,0a1,1,0,0,1-.18.5c-.19.18-.53.18-.69.34s-.63.3-.63.14c.08.48-.41.34-.63.56-.06.06-.24.14-.28.18s-.18.1-.23.14a1.81,1.81,0,0,0,.56.28c.26,0,.59,0,.91,0,1.91,0,.21.39.21,1.69,0,.49-1.13.42-1.13.95,0,.13-.36.35-.39.38-.43.42-.07,0,.35,0s-.5.94-1.06.94c-.14,0-.82.17-.57.17s.6.18.81.18a.68.68,0,0,0,.36.07c.18,0,.32,0,.5,0s.1.18.1.32a1,1,0,0,1-.28.49.19.19,0,0,1-.11,0c-.07,0-.25.21-.32.21a2.43,2.43,0,0,0-.28.14h-.07c-.07.07.39.18.46.18s.53,0,.64,0c.42,0-.64,1.09-.91,1a4.54,4.54,0,0,0-.5.12s-.36.15-.24.17c.38.07.34.48,0,.42s-.43,1-1.21.83c-.06,0-.64.14-.62,0a.7.7,0,0,0,.6.19.19.19,0,0,1,.21.21c0,.15-.24.3-.42.32-.54.06-.91.54-1.35.38a3.29,3.29,0,0,0,1.14.49c.87.2,1.93.23,1.12.37a16,16,0,0,0,1.61,0c.56.28-.92.74.29.95.23,0,1.45,0,1.32.15-.31.46,1.63.5,2.12.8.14.09.36.36.56.36a9.3,9.3,0,0,0,1-.28c0,.27.33.27.6.27l.48-.18a1.72,1.72,0,0,1,.77-.06,1.33,1.33,0,0,0,.28,0A15.54,15.54,0,0,1,65,45.56c-.06.26-.29.35-.41.46s0,.27-.13.36c-.4.39-1.51.1-2,.35s-.8.17-1.21.37h9.51c-.57,0-.9-.37-1.39-.37a3.24,3.24,0,0,1-.54,0,3.68,3.68,0,0,0-1.62-.27.9.9,0,0,1-.52-.29,4.18,4.18,0,0,1-.3-1.54C66.32,44.12,66.27,43.55,66.25,43Z"/><path class="cls-1" d="M31.89,23.33H31.7l-.15.12.09.09h.16l.09-.09m-.77.15-.19.34V24l.37-.28-.12-.15Zm.95.12v.19l.06.15.13,0,.21-.12.1-.25-.1-.09-.3.06L32,23.63v0Zm1.08.4,0,.06h.09l0-.09,0-.09ZM32,24.45l.09.06.13-.12a.36.36,0,0,1-.19,0Zm.5,0-.16,0,.09.27.07-.06ZM28.73,39.67l.34,0h.26l0-.08L29,39.45Zm-.49.53-.15-.15h0l0,.11.15.11ZM27,40.05l-.29,0,.07.11.37.07V40Zm.45-.77.19.55v-.18l.18-.08A1.42,1.42,0,0,0,27.46,39.28Zm-2.09-.15-.07.11v.22l.11.15.08-.18A.94.94,0,0,0,25.37,39.13ZM30,26.21l.06.09.19-.06.09-.15L30.25,26l-.16.06Zm.41-.5,0,.09.12.06.12,0-.09-.15Zm.24.85.06-.12-.06-.06-.09.09,0,.12Zm2.77-2.43h-.06l-.06,0,0,.12h.06l.07-.09Zm.5,0-.1,0-.06,0v.06l.1.06.09-.06Zm-.31-.91h-.12v.06l.06.06h.06l0-.06ZM32.28,35.85l.24.15.06-.06-.24-.39Zm-2.36,0L30,36l.18.06,0-.15L30,35.79H30Zm3.7-18v0l-.12,0v.06l.09,0,.06,0ZM29.88,34.59l0,.06.16.06.12-.15-.18,0Zm3-16.62,0-.12-.16-.06-.06-.06,0,.15.16.15ZM30.78,35.12h.06l0,0,.06,0V35l-.09,0-.06.06ZM33.1,17.58l.06.06.1-.09,0-.06h-.06ZM33,18.85,33,19l.13.06h.09l.06-.09-.12-.19h-.09Zm.15-1.55.06.06,0-.12h-.1Zm.25-.12.09.12.19,0-.22-.27Zm.09-.73.12.07.07-.13-.13,0-.06,0ZM27.14,35.11l0-.09-.06,0,0,.12.06,0Zm1.94-.25v0l0-.06-.06,0-.06.19h.12Zm-.83,0-.12-.3-.13.34L28,35Zm-.59-.45,0,0h-.09l-.06.09.09,0Zm.16.91-.13-.1-.12.1v.06l.25.24h.06v-.12a.23.23,0,0,0,0-.09A.23.23,0,0,1,27.82,35.35Zm.8-.16-.12,0-.09.27.09-.15.09,0ZM32.1,21.91v.31l-.06.15h-.12A.79.79,0,0,1,32.1,21.91ZM28.8,34.2l0-.09L28.62,34l0,.12.09.09Zm3.82-12.83.07,0h.12v.18l-.09,0-.1-.09Zm-1.23-.46,0-.09h.09l.06.06v.18L31.42,21Zm.5-.54.15-.06h0l-.09.18h-.09Zm1,.42h-.09l.06-.61-.09-.09.33.25ZM27.44,38l.12-.07.29,0,.08.11,0,0-.33.07h-.12Zm2.09-6.51,0-.16-.15,0-.22.34,0,.06.19,0Zm-3.26,6.41.08-.25.26-.08-.08.15V38l-.15,0ZM30,37.79l.08-.07.11.15h0v.07Zm-2.08-.55,0-.11.08-.07.11.15,0,.11-.11.07Zm-1.24,1.65-.12.07-.14-.22.14-.22.45.33v.07l-.07,0-.08-.07Zm2.43-9.19.13-.21-.1-.07H29l-.09.1v.12l.06.06Zm1.23-.28.13.1,0-.1h0s-.05,0-.1-.06Zm-.58-.24-.09-.12-.16,0-.12.09v.12l.18,0Zm1.83.13-.16,0-.06-.06,0,.15.09,0,.13,0ZM30.05,29l.06,0h.06l0-.06,0-.06-.12,0Zm-.51,3.46,0,.18.18-.12-.09-.18h-.09Zm.75-3.82h0l.07-.09,0-.07h-.07l-.06.07v.06Zm-.87-.48.1.09.15,0,.18,0,.07-.06L29.85,28l-.12,0-.21.09ZM29.29,32l0,.12.09-.18h-.09Zm-.63.33-.24.16,0,.06.18,0,.09.09.06,0,0-.15Zm2.47.16L31,32.33l-.09.28v-.06l.24.09ZM33.75,43a.64.64,0,0,0-.26.31c-.18.38-.47,0-.72,0a1,1,0,0,1-.57-.15c-.25-.25-.06-.41-.44-.41s-.89.53-1.24.53c0,0,.1-.22.1-.41,0-.43.06-.31-.16-.31a9.14,9.14,0,0,0-1.77.5c-.34.34.26-.56.19-.68s-.09.06-.15.06l-.19,0c-.07,0-.22,0-.35,0l-.66,0c-.07,0-.38.1-.38,0s.22-.28.22-.37.06,0,0,0h0l0,0h-.07a1.12,1.12,0,0,1-.35.09,1.37,1.37,0,0,1-.41,0c-.12,0-.15.06-.15-.19,0,.07-.13.07,0,0l.25-.12c1.34-.53.48-.47-.63-.47-.57,0-1,0-1.23-.24a7.61,7.61,0,0,0-1-.34c-.69,0,0-.32.23-.4s-.95-.25-1.14-.35-.48-.09-.79-.34h.31c.13,0,.26-.12.35-.12s.48-.29.66-.29.32-.09.19-.09a1.94,1.94,0,0,1-.5-.15,2,2,0,0,1-.54-.38c-.41-.4.32-.15.51-.15.38,0,1.08-.58,1.39-.73s0-.34-.15-.5c.9-.48,1.81-.63,2.09-1.79,0,0,0-.09,0-.09h-.13c-.24,0-.51,0-.74,0l-.43,0c-.08,0,.33-.24.34-.27s.34-.48.4-.51-.08-.09-.15-.09-.26.06-.4.06l-.52,0a1,1,0,0,0,.61-.2c.08-.09.31-.11.35-.16l.37-.2s.38-.42.21-.42a1.55,1.55,0,0,1-.31-.07l.35-.18.36-.2a1.92,1.92,0,0,0,.85-1.47c0-.18-.23-.11-.05-.31,0,0,.41-.23.24-.4s-.1-.05-.24-.05a2.55,2.55,0,0,1-.78-.06,3.22,3.22,0,0,1,.79-.65.87.87,0,0,0,.41-.87c0-.22.36-.35-.18-.35-.17,0-.8-.09-.72-.18s.71-.25.88-.44.3-.28.44-.43a1.83,1.83,0,0,0,.28-.41,1.5,1.5,0,0,1-.92-.31c.4,0,.74-.22,1-.22s.18-.68.46-.84a.57.57,0,0,0,.42-.56c0-.28.08-.18.17-.28s.57-.09.61-.58a4.07,4.07,0,0,1-.86-.2c0-.06-.09,0,0-.09s.11-.13.16-.16.26-.21.34-.24a1.25,1.25,0,0,0,.53-.56c.05-.16.11-.44-.12-.44s.16-.37-.27-.37c-.23,0-.06-.13,0-.13.25,0,.58-.68.58-.93-.26,0-.36-.06-.62-.06s-.78-.15-.71-.18,1.07-.29,1.06-.69c0-.13.11-.28.11-.38s-.21-.31-.35-.34a1.82,1.82,0,0,1,.45-.06c.06,0,.22-.13.28-.16l.25-.09c.06,0,.11-.28.14-.31a.19.19,0,0,0,0-.1.91.91,0,0,1,.11-.25.49.49,0,0,0,.05-.25,2,2,0,0,1,.08-.28c0-.06.2-.15.2-.18s0,0,0-.07a1.6,1.6,0,0,0-.1-.23l-.48-.15.08-.11.12-.15c0-.05.07-.15.11-.2s.15-.2.07-.3-.47,0-.51-.05a1.39,1.39,0,0,1-.48-.3c0-.05-.08-.1,0-.1h.6c.27,0,1,0,1-.31,0-.05-.28-.1-.32-.1l.48-.15c.36-.36.64-1,1-1.49,0,0,0-.15,0-.15s-.2-.1-.2-.25a2.21,2.21,0,0,1,.19-.35h-.12c-.12,0-.24,0-.36,0a3.66,3.66,0,0,0,.58-.66,10,10,0,0,0,.42-1l.07-.25a4,4,0,0,0,.26-.76,3,3,0,0,1,.15-.65c-.14.47.34,1.13.53,1.51s.21,1,.66,1.21a1.16,1.16,0,0,1-.49.14c-.11,0,.06.33.06.33s.07.19.13.25-.42.18-.22.38.31.8.46.87.58.56.84.56a5,5,0,0,1-.51.09c-.08,0,.07.37.07.38a.84.84,0,0,0,.28.62s.16.07.2.11l.14.16c.06.06-.42,0-.31.09a2,2,0,0,1,.35.47c0,.09.51.4.51.31,0,.1-.42.19-.26.35s-.12.19-.17.21c-.27.13.27.65.39.65s-.23.09-.13.14.13.17.2.23a1.42,1.42,0,0,0,.46.29c.1,0,.17.06,0,.06l-.16,0-.14,0c-.06.14-.12.42.09.42s.16.07.16.23.34.32.45.32.21.29.43.29c-.11,0-.27.05-.4.05s0,.17,0,.2,0,.21.08.27a1.6,1.6,0,0,0,.57.19c.35,0,.09,0,0,.09s-.13.09,0,.2a.79.79,0,0,0,.44.13c.1,0,.46.07.46.06a2.54,2.54,0,0,0-.46.17,1.17,1.17,0,0,1-.4.1c-.12,0-.16,0-.16.12s-.36.06-.39.09-.2.29-.1.39.21.18.17.22c-.19.2.86.67.83.69s-.14,0-.09.08a2.38,2.38,0,0,0,.32.12c.15.08.32.41.6.41-.13,0-.26,0-.37,0s0,.18,0,.22a.24.24,0,0,1-.08.19s-.12.07,0,.13a2.33,2.33,0,0,1,.17.26,1.23,1.23,0,0,0,.22.24l.13.11s.05,0,0,0h-.4c-.1,0-.05,0-.05,0-.24,0-.31.08-.22.24a1.23,1.23,0,0,0,.58.59,1.26,1.26,0,0,1,.24.19c0,.08.23.14.07.14s-.47.07-.29.15.35.4.67.4.65.16.83.16c-.18,0-.38.06-.59.06s.15.2-.14.2-.3,0-.3.08-.16.16-.27.16-.24,0-.24,0a1,1,0,0,0,.18.5c.19.18.53.18.69.34s.63.3.63.14c-.08.48.41.34.63.56.06.06.24.14.28.18s.19.1.23.14a1.81,1.81,0,0,1-.56.28c-.26,0-.59,0-.91,0-1.91,0-.21.39-.21,1.69,0,.49,1.14.42,1.14.95,0,.14.35.35.38.38.43.42.07,0-.35,0s.5.94,1.06.94c.15,0,.82.17.57.17s-.6.18-.81.18a.68.68,0,0,1-.36.07c-.18,0-.32,0-.49,0s-.11.18-.11.32a1,1,0,0,0,.28.49.19.19,0,0,0,.11,0c.07,0,.25.21.32.21a2.43,2.43,0,0,1,.28.14h.07c.07.07-.39.18-.46.18s-.53,0-.64,0c-.42,0,.64,1.09.91,1a4.54,4.54,0,0,1,.5.12s.36.15.24.17c-.38.07-.34.48,0,.41s.43,1,1.21.84c.06,0,.64.14.62,0a.7.7,0,0,1-.6.19.19.19,0,0,0-.21.21.51.51,0,0,0,.42.32c.54.06.91.54,1.35.38a3.29,3.29,0,0,1-1.14.49c-.87.2-1.93.23-1.12.37a16,16,0,0,1-1.61,0c-.56.28.92.74-.29.95-.23,0-1.45,0-1.32.15.31.46-1.63.5-2.12.8-.14.09-.35.36-.56.36a9.3,9.3,0,0,1-1-.28c0,.27-.33.27-.6.27l-.48-.18a1.76,1.76,0,0,0-.78-.06,1.31,1.31,0,0,1-.27,0A16.66,16.66,0,0,0,35,45.56c.06.26.29.35.41.46s0,.27.13.36c.4.39,1.51.1,2,.35s.8.17,1.21.37H29.24c.57,0,.9-.37,1.4-.37a3.12,3.12,0,0,0,.53,0,3.68,3.68,0,0,1,1.62-.27.9.9,0,0,0,.52-.29,4.18,4.18,0,0,0,.3-1.54C33.68,44.12,33.73,43.55,33.75,43Z"/><text class="cls-2" transform="translate(5.59 57.6) scale(1.01 1)">C<tspan class="cls-3" x="4.52" y="0">Ă</tspan><tspan class="cls-4" x="8.48" y="0">B</tspan><tspan class="cls-5" x="12.58" y="0">Ă</tspan><tspan x="16.54" y="0">NU</tspan><tspan class="cls-3" x="25.1" y="0">Ț</tspan><tspan class="cls-6" x="28.79" y="0">E LUX</tspan><tspan class="cls-7" x="46.64" y="0">O</tspan><tspan class="cls-6" x="51.23" y="0">ASE FOREST</tspan></text></g></g></svg>