<svg xmlns="http://www.w3.org/2000/svg" viewBox="0 0 301.07 70.22"><defs><style>.cls-1{fill:#f8f9ff;}.cls-2{fill:#fd907e;}.cls-3,.cls-5{fill:#133aab;}.cls-3{opacity:0.77;}.cls-4{fill:#133aa9;}.cls-5{opacity:0.87;}.cls-6{font-size:16.06px;font-family:Montserrat-SemiBold, Montserrat;font-weight:600;}.cls-7{letter-spacing:-0.01em;}.cls-8{letter-spacing:-0.01em;}.cls-9{letter-spacing:-0.02em;}.cls-10{letter-spacing:0em;}.cls-11{letter-spacing:0em;}.cls-12{letter-spacing:-0.02em;}.cls-13{letter-spacing:-0.01em;}</style></defs><g id="Layer_2" data-name="Layer 2"><g id="Layer_1-2" data-name="Layer 1"><g id="BG"><path class="cls-1" d="M64.42,70.22H14.87C6.65,70.22,0,64.33,0,57.06V13.17C0,5.89,6.65,0,14.87,0H64.42c8.21,0,14.86,5.89,14.86,13.17V57.06C79.28,64.33,72.63,70.22,64.42,70.22Z"/></g><g id="bold"><path class="cls-2" d="M38,49v3.58c0,1.28.74,2.32,1.65,2.32s1.65-1,1.65-2.32V49"/><path class="cls-3" d="M31.83,39.65,25,47.4a.91.91,0,0,0-.11,1.09,1.28,1.28,0,0,0,1.1.57H53.27a1.27,1.27,0,0,0,1.1-.57.91.91,0,0,0-.11-1.09h0l-6.8-7.74"/><path class="cls-4" d="M49.33,29.11l-8.67-11a1.39,1.39,0,0,0-2,0L30,29.11a1,1,0,0,0-.09,1.14,1.27,1.27,0,0,0,1.1.59H48.31a1.26,1.26,0,0,0,1.1-.59A1,1,0,0,0,49.33,29.11Z"/><path class="cls-5" d="M52.6,37.85l-7.16-8.32a1.35,1.35,0,0,0-1.74-.21,1,1,0,0,0-.47.87H36.05a1,1,0,0,0-.47-.87,1.35,1.35,0,0,0-1.74.21l-7.16,8.32A1,1,0,0,0,26.55,39a1.27,1.27,0,0,0,1.11.61h24A1.25,1.25,0,0,0,52.72,39,1,1,0,0,0,52.6,37.85Z"/></g><text class="cls-6" transform="translate(80.5 39.95) scale(1.06 1)"><tspan class="cls-7">C</tspan><tspan x="11.59" y="0">ă</tspan><tspan class="cls-8" x="21.34" y="0">b</tspan><tspan x="32.24" y="0">ănu</tspan><tspan class="cls-9" x="63.92" y="0">ț</tspan><tspan x="70.43" y="0">e </tspan><tspan class="cls-10" x="84.85" y="0">L</tspan><tspan class="cls-11" x="94.39" y="0">u</tspan><tspan class="cls-9" x="105.32" y="0">x</tspan><tspan class="cls-8" x="114.23" y="0">o</tspan><tspan x="124.48" y="0">ase </tspan><tspan class="cls-12" x="156.91" y="0">F</tspan><tspan x="166.9" y="0">o</tspan><tspan class="cls-13" x="177.25" y="0">r</tspan><tspan x="183.83" y="0">est</tspan></text></g></g></svg>